# xmcd
#
# Track frame offsets: 
#        150
#        16462
#        30434
#
# Disc length: 562 seconds
#
# Revision: 0
# Processed by: cddbd v1.5.2PL0 Copyright (c) Steve Scherf et al.
# Submitted via: ExactAudioCopyFreeDBPlugin 1.0
#
DISCID=17023003
DTITLE=Sue Fabisch - Walmart Woman
DYEAR=1900
DGENRE=
TTITLE0=Wal-Mart Woman
TTITLE1=The Mom Of Constant Sorrow
TTITLE2=I'm Danny's Mom
EXTD=
EXTT0=
EXTT1=
EXTT2=
PLAYORDER=
